<svg xmlns="http://www.w3.org/2000/svg" viewBox="0 0 1024 1024" width="1024" height="1024">
  <path d="M827.18 326.77 A83.09 83.09 0 1 0 993.35 326.77 A83.09 83.09 0 1 0 827.18 326.77 Z" fill="#FF7A6B"/>
  <path d="M887.08 300.69 L939.74 308.09 L933.45 352.85 L880.79 345.45 Z" fill="#1F1E4D"/>
  <path d="M887.08 300.69 A26.59 9.31 8 1 0 939.74 308.09 A26.59 9.31 8 1 0 887.08 300.69 Z" fill="#1F1E4D"/>
  <path d="M880.79 345.45 A26.59 9.31 8 1 0 933.45 352.85 A26.59 9.31 8 1 0 880.79 345.45 Z" fill="#1F1E4D"/>
  <path d="M884.68 317.8 A26.59 9.31 8 0 0 937.33 325.2" fill="none" stroke="#FF7A6B" stroke-width="4.65" stroke-linecap="round" stroke-linejoin="round"/>
  <path d="M882.64 332.29 A26.59 9.31 8 0 0 935.3 339.69" fill="none" stroke="#FF7A6B" stroke-width="4.65" stroke-linecap="round" stroke-linejoin="round"/>
  <path d="M24 388.81 A126.29 126.29 0 1 0 276.59 388.81 A126.29 126.29 0 1 0 24 388.81 Z" fill="#FFB23F"/>
  <path d="M65.13 408.77 A28.29 28.29 -10 1 0 120.85 398.94 A28.29 28.29 -10 1 0 65.13 408.77 Z" fill="#1F1E4D"/>
  <path d="M88.19 388.29 A36.37 36.37 -10 1 0 159.83 375.66 A36.37 36.37 -10 1 0 88.19 388.29 Z" fill="#1F1E4D"/>
  <path d="M133.49 400.82 A22.23 22.23 -10 1 0 177.27 393.1 A22.23 22.23 -10 1 0 133.49 400.82 Z" fill="#1F1E4D"/>
  <path d="M79.7 404.15 L161.29 389.76 A15.16 15.16 -10 0 1 178.85 402.05 L178.85 402.05 A15.16 15.16 -10 0 1 166.56 419.61 L84.97 434 A15.16 15.16 -10 0 1 67.41 421.7 L67.41 421.7 A15.16 15.16 -10 0 1 79.7 404.15 Z" fill="#1F1E4D"/>
  <path d="M217.72 495.59 A126.29 126.29 0 0 1 52.27 468.44 Z" fill="#000000" fill-opacity="0.26"/>
  <path d="M771.79 388.81 A114.11 114.11 0 1 0 1000 388.81 A114.11 114.11 0 1 0 771.79 388.81 Z" fill="#5FE3B0"/>
  <path d="M896.57 343.42 L950.81 351.04 A27.39 27.39 8 0 1 974.11 381.97 L971.57 400.05 A27.39 27.39 8 0 1 940.64 423.36 L886.4 415.73 A27.39 27.39 8 0 1 863.1 384.8 L865.64 366.72 A27.39 27.39 8 0 1 896.57 343.42 Z" fill="#1F1E4D"/>
  <path d="M883.81 407.99 L870.45 437.46 L910.42 415.42 Z" fill="#1F1E4D"/>
  <path d="M884.25 378.56 A9.13 9.13 8 1 0 902.33 381.1 A9.13 9.13 8 1 0 884.25 378.56 Z" fill="#5FE3B0"/>
  <path d="M909.57 382.11 A9.13 9.13 8 1 0 927.65 384.66 A9.13 9.13 8 1 0 909.57 382.11 Z" fill="#5FE3B0"/>
  <path d="M934.88 385.67 A9.13 9.13 8 1 0 952.96 388.21 A9.13 9.13 8 1 0 934.88 385.67 Z" fill="#5FE3B0"/>
  <path d="M962.36 473.5 A114.11 114.11 0 0 1 840.1 493.33 Z" fill="#000000" fill-opacity="0.26"/>
  <path d="M324.55 67.98 C356.13 131.13 381.39 139.55 425.59 141.65 C478.21 126.92 562.41 126.92 615.03 141.65 C659.23 139.55 684.49 131.13 716.06 67.98 C758.16 137.44 829.73 200.59 850.78 326.88 C871.82 482.64 823.41 625.77 676.07 667.87 C591.87 691.03 448.74 691.03 364.55 667.87 C217.21 625.77 168.79 482.64 189.84 326.88 C210.89 200.59 284.56 137.44 324.55 67.98 Z M431.9 270.15 C444.01 320.99 456.11 335.51 506.94 350.03 C456.11 364.56 444.01 379.08 431.9 429.92 C419.8 379.08 407.7 364.56 356.86 350.03 C407.7 335.51 419.8 320.99 431.9 270.15 Z M608.71 270.15 C620.82 320.99 632.92 335.51 683.75 350.03 C632.92 364.56 620.82 379.08 608.71 429.92 C596.61 379.08 584.51 364.56 533.67 350.03 C584.51 335.51 596.61 320.99 608.71 270.15 Z M520.31 406.24 C533.57 406.24 542.41 419.5 542.41 434.23 C542.41 448.96 533.57 460.75 520.31 460.75 C507.05 460.75 498.21 448.96 498.21 434.23 C498.21 419.5 507.05 406.24 520.31 406.24 Z" fill="#F4F4FF" fill-rule="evenodd"/>
  <path d="M46.16 501.81 Q520.31 601.51 994.46 501.81 L994.46 623.67 Q994.46 956.02 662.11 956.02 L378.51 956.02 Q46.16 956.02 46.16 623.67 Z" fill="#3E3CB2"/>
  <path d="M97.12 559.42 L99.23 559.9 L101.35 560.39 L103.46 560.87 L105.58 561.35 L107.7 561.82 L109.81 562.3 L111.93 562.77 L114.04 563.24 L116.16 563.7 L118.28 564.17 L120.39 564.63 L122.51 565.09 L124.62 565.55 L126.74 566 L128.86 566.45 L130.97 566.9 L133.09 567.35 L135.2 567.79 L136.07 567.98 M162.13 573.24 L162.71 573.35 L164.83 573.77 L166.94 574.17 L169.06 574.58 L171.18 574.98 L173.29 575.38 L175.41 575.78 L177.52 576.18 L179.64 576.57 L181.76 576.96 L183.87 577.35 L185.99 577.74 L188.1 578.12 L190.22 578.5 L192.34 578.88 L194.45 579.26 L196.57 579.63 L198.68 580 L200.8 580.37 L201.35 580.47 M227.58 584.84 L228.31 584.95 L230.42 585.29 L232.54 585.62 L234.65 585.95 L236.77 586.28 L238.89 586.6 L241 586.93 L243.12 587.25 L245.23 587.57 L247.35 587.88 L249.47 588.19 L251.58 588.5 L253.7 588.81 L255.81 589.12 L257.93 589.42 L260.05 589.72 L262.16 590.02 L264.28 590.32 L266.39 590.61 L267.03 590.7 M293.39 594.14 L293.9 594.21 L296.02 594.47 L298.13 594.72 L300.25 594.98 L302.36 595.23 L304.48 595.48 L306.6 595.73 L308.71 595.97 L310.83 596.22 L312.94 596.46 L315.06 596.69 L317.18 596.93 L319.29 597.16 L321.41 597.39 L323.52 597.62 L325.64 597.85 L327.76 598.07 L329.87 598.29 L331.99 598.51 L333.02 598.61 M359.49 601.12 L359.5 601.12 L361.61 601.31 L363.73 601.49 L365.84 601.67 L367.96 601.84 L370.08 602.02 L372.19 602.19 L374.31 602.36 L376.42 602.52 L378.54 602.69 L380.66 602.85 L382.77 603.01 L384.89 603.17 L387 603.32 L389.12 603.48 L391.24 603.63 L393.35 603.77 L395.47 603.92 L397.58 604.06 L399.25 604.17 M425.79 605.73 L427.21 605.8 L429.32 605.91 L431.44 606.01 L433.55 606.11 L435.67 606.21 L437.79 606.31 L439.9 606.4 L442.02 606.49 L444.13 606.58 L446.25 606.67 L448.37 606.75 L450.48 606.83 L452.6 606.91 L454.71 606.99 L456.83 607.06 L458.95 607.13 L461.06 607.2 L463.18 607.27 L465.29 607.34 L465.64 607.35 M492.22 607.94 L492.8 607.95 L494.92 607.98 L497.03 608.01 L499.15 608.04 L501.27 608.06 L503.38 608.08 L505.5 608.1 L507.61 608.12 L509.73 608.13 L511.84 608.14 L513.96 608.15 L516.08 608.15 L518.19 608.16 L520.31 608.16 L522.42 608.16 L524.54 608.15 L526.66 608.15 L528.77 608.14 L530.89 608.13 L532.1 608.12 M558.69 607.76 L560.51 607.72 L562.63 607.67 L564.74 607.62 L566.86 607.57 L568.98 607.52 L571.09 607.46 L573.21 607.4 L575.32 607.34 L577.44 607.27 L579.56 607.2 L581.67 607.13 L583.79 607.06 L585.9 606.99 L588.02 606.91 L590.14 606.83 L592.25 606.75 L594.37 606.67 L596.48 606.58 L598.55 606.49 M625.11 605.17 L626.11 605.11 L628.22 604.99 L630.34 604.86 L632.45 604.74 L634.57 604.61 L636.69 604.47 L638.8 604.34 L640.92 604.2 L643.03 604.06 L645.15 603.92 L647.27 603.77 L649.38 603.63 L651.5 603.48 L653.61 603.32 L655.73 603.17 L657.85 603.01 L659.96 602.85 L662.08 602.69 L664.19 602.52 L664.9 602.47 M691.39 600.19 L691.7 600.16 L693.82 599.97 L695.93 599.76 L698.05 599.56 L700.17 599.36 L702.28 599.15 L704.4 598.94 L706.51 598.72 L708.63 598.51 L710.75 598.29 L712.86 598.07 L714.98 597.85 L717.09 597.62 L719.21 597.39 L721.32 597.16 L723.44 596.93 L725.56 596.69 L727.67 596.46 L729.79 596.22 L731.05 596.07 M757.45 592.85 L759.41 592.6 L761.53 592.32 L763.64 592.04 L765.76 591.76 L767.88 591.48 L769.99 591.19 L772.11 590.9 L774.22 590.61 L776.34 590.32 L778.46 590.02 L780.57 589.72 L782.69 589.42 L784.8 589.12 L786.92 588.81 L789.04 588.5 L791.15 588.19 L793.27 587.88 L795.38 587.57 L796.94 587.33 M823.21 583.19 L825.01 582.89 L827.12 582.54 L829.24 582.18 L831.35 581.83 L833.47 581.47 L835.59 581.11 L837.7 580.74 L839.82 580.37 L841.93 580 L844.05 579.63 L846.17 579.26 L848.28 578.88 L850.4 578.5 L852.51 578.12 L854.63 577.74 L856.75 577.35 L858.86 576.96 L860.98 576.57 L862.49 576.29 M888.59 571.24 L890.6 570.84 L892.72 570.41 L894.83 569.98 L896.95 569.55 L899.07 569.11 L901.18 568.68 L903.3 568.24 L905.41 567.79 L907.53 567.35 L909.65 566.9 L911.76 566.45 L913.88 566 L915.99 565.55 L918.11 565.09 L920.23 564.63 L922.34 564.17 L924.46 563.7 L926.57 563.24 L927.61 563.01 M97.12 559.42 L97.12 599.3 M97.14 625.88 L97.29 637.56 L97.82 651.1 L98.7 664.3 L98.84 665.72 M101.91 692.12 L103.45 701.76 L105.73 713.54 L108.37 724.97 L110.04 731.14 M118.15 756.45 L118.4 757.15 L122.44 767.18 L126.84 776.85 L131.59 786.17 L135.17 792.47 M149.92 814.56 L154.1 819.94 L160.61 827.5 L167.46 834.71 L174.67 841.57 L177.09 843.65 M198.15 859.85 L198.42 860.04 L207.03 865.49 L216 870.59 L225.32 875.34 L233.14 878.89 M258 888.28 L266.13 890.81 L277.21 893.8 L288.64 896.44 L296.65 898 M322.93 901.98 L325.04 902.24 L337.88 903.48 L351.07 904.36 L362.7 904.81 M389.28 905.06 L429.16 905.06 M455.75 905.06 L495.63 905.06 M522.22 905.06 L562.1 905.06 M588.69 905.06 L628.57 905.06 M655.16 905.06 L662.11 905.06 L676 904.88 L689.55 904.36 L695.02 903.99 M721.49 901.5 L728.06 900.66 L740.2 898.73 L751.98 896.44 L760.71 894.43 M786.26 887.1 L795.6 883.78 L805.62 879.73 L815.29 875.34 L822.9 871.46 M845.6 857.65 L850.47 854.23 L858.38 848.08 L865.94 841.57 L873.15 834.71 L875.89 831.83 M893.03 811.52 L898.48 803.76 L903.93 795.14 L909.03 786.17 L913.51 777.37 M923.75 752.85 L925.91 746.78 L929.26 736.05 L932.24 724.97 L934.66 714.52 M939.27 688.34 L940.69 677.13 L941.92 664.3 L942.8 651.1 L942.89 648.64 M943.5 622.06 L943.5 582.18" fill="none" stroke="#A7A5FF" stroke-width="15.51" stroke-linecap="round" stroke-linejoin="round"/>
  <path d="M371.86 548.34 A55.39 37.67 0 1 0 482.64 548.34 A55.39 37.67 0 1 0 371.86 548.34 Z" fill="#F4F4FF"/>
  <path d="M557.98 548.34 A55.39 37.67 0 1 0 668.76 548.34 A55.39 37.67 0 1 0 557.98 548.34 Z" fill="#F4F4FF"/>
</svg>
